<svg xmlns="http://www.w3.org/2000/svg" version="1.1" xmlns:xlink="http://www.w3.org/1999/xlink" width="2065" height="2200"><svg width="2065" height="2200" viewBox="0 0 2065 2200" fill="none" xmlns="http://www.w3.org/2000/svg">
<path d="M1240.25 339.782C1257.22 335.673 1275.44 336.007 1293.01 341.51L1293.87 341.785L1293.88 341.786C1297.27 342.884 1300.35 344.494 1303.07 346.501C1305.52 346.878 1307.97 347.55 1310.39 348.542L1311.29 348.929L1524.85 444.106L1524.86 444.11C1541 451.311 1548.24 470.229 1541.05 486.361L1513.37 548.471C1506.18 564.593 1487.28 571.873 1471.12 564.678L1471.11 564.674L1280.21 479.593L1265.77 512H1325C1343.23 512 1358 526.775 1358 545V650.465C1358 656.216 1356.53 661.619 1353.95 666.322C1359.78 668.127 1365.22 671.59 1369.5 676.741L1369.82 677.142L1521.32 865.174C1530.26 876.261 1530.57 890.33 1524.81 901.288C1529 906.803 1531.5 913.691 1531.5 921.215V1688.21C1531.5 1701.14 1523.95 1712.87 1512.2 1718.24L1202.7 1859.41C1192.12 1864.23 1180.85 1862.99 1172.03 1857.69C1165.6 1862.25 1157.5 1864.54 1148.96 1863.49L544.96 1788.98C528.422 1786.94 516 1772.89 516 1756.23V929.08C516 919.347 520.206 910.629 526.872 904.601C523.325 894.583 524.489 882.842 532.119 873.19L702.831 657.246C699.788 652.277 698.022 646.443 697.99 640.201L697.511 545.167C697.418 526.877 712.219 512 730.51 512H1121.25L1170.21 402.147C1171.45 399.362 1173.03 396.858 1174.87 394.651C1175.59 391.269 1176.88 387.944 1178.77 384.811L1178.77 384.809C1188.45 368.759 1202.18 356.272 1217.97 348.103L1218.79 347.697C1221.96 346.162 1225.24 345.206 1228.52 344.773C1231.48 342.744 1234.85 341.172 1238.59 340.2L1240.25 339.782ZM1153.09 1832.73C1153.12 1832.73 1153.15 1832.73 1153.18 1832.73C1153.15 1832.73 1153.12 1832.73 1153.09 1832.73ZM1153.28 1832.72C1153.31 1832.71 1153.35 1832.71 1153.39 1832.7C1153.35 1832.71 1153.31 1832.71 1153.28 1832.72ZM1153.48 1832.68C1153.51 1832.67 1153.54 1832.66 1153.58 1832.65C1153.54 1832.66 1153.51 1832.67 1153.48 1832.68ZM1153.7 1832.61C1153.72 1832.6 1153.74 1832.59 1153.76 1832.59C1153.74 1832.59 1153.72 1832.6 1153.7 1832.61ZM1153.87 1832.54C1153.9 1832.52 1153.93 1832.51 1153.95 1832.49C1153.93 1832.51 1153.9 1832.52 1153.87 1832.54ZM1154.03 1832.45C1154.07 1832.43 1154.1 1832.41 1154.13 1832.39C1154.1 1832.41 1154.07 1832.43 1154.03 1832.45ZM1154.2 1832.34C1154.23 1832.31 1154.26 1832.29 1154.29 1832.27C1154.26 1832.29 1154.23 1832.31 1154.2 1832.34ZM1154.35 1832.21C1154.38 1832.18 1154.41 1832.15 1154.44 1832.12C1154.41 1832.15 1154.38 1832.18 1154.35 1832.21ZM1154.49 1832.07C1154.52 1832.04 1154.54 1832.01 1154.57 1831.98C1154.54 1832.01 1154.52 1832.04 1154.49 1832.07ZM1154.62 1831.91C1154.64 1831.87 1154.67 1831.84 1154.69 1831.81C1154.67 1831.84 1154.64 1831.87 1154.62 1831.91ZM1154.73 1831.74C1154.75 1831.71 1154.76 1831.67 1154.78 1831.64C1154.76 1831.67 1154.75 1831.71 1154.73 1831.74ZM1154.83 1831.55C1154.84 1831.53 1154.85 1831.5 1154.86 1831.47C1154.85 1831.5 1154.84 1831.53 1154.83 1831.55ZM1188.99 1831.39C1189 1831.39 1189 1831.39 1189 1831.39C1189 1831.39 1189 1831.39 1188.99 1831.39ZM1188.76 1831.38C1188.76 1831.38 1188.77 1831.38 1188.78 1831.38C1188.77 1831.38 1188.76 1831.38 1188.76 1831.38ZM1154.95 1831.17C1154.94 1831.24 1154.92 1831.3 1154.9 1831.36C1154.94 1831.23 1154.97 1831.1 1154.99 1830.96L1154.95 1831.17ZM1188.45 1831.31C1188.49 1831.32 1188.52 1831.33 1188.56 1831.34C1188.52 1831.33 1188.49 1831.32 1188.45 1831.31ZM1188.21 1831.22C1188.25 1831.24 1188.29 1831.26 1188.33 1831.28C1188.29 1831.26 1188.25 1831.24 1188.21 1831.22ZM1188.02 1831.13C1188.06 1831.15 1188.09 1831.17 1188.12 1831.19C1188.09 1831.17 1188.06 1831.15 1188.02 1831.13ZM1187.73 1830.93C1187.76 1830.96 1187.79 1830.98 1187.82 1831C1187.79 1830.98 1187.76 1830.96 1187.73 1830.93ZM1187.55 1830.77C1187.59 1830.81 1187.64 1830.85 1187.68 1830.89C1187.64 1830.85 1187.59 1830.81 1187.55 1830.77ZM1187.4 1830.59C1187.43 1830.63 1187.46 1830.67 1187.5 1830.71C1187.46 1830.67 1187.43 1830.63 1187.4 1830.59ZM1187.27 1830.4C1187.28 1830.42 1187.29 1830.43 1187.3 1830.44C1187.29 1830.43 1187.28 1830.42 1187.27 1830.4ZM1187.17 1830.2C1187.17 1830.21 1187.18 1830.23 1187.19 1830.24C1187.18 1830.23 1187.17 1830.21 1187.17 1830.2ZM1187.09 1829.98C1187.09 1829.99 1187.09 1830 1187.1 1830.01C1187.09 1830 1187.09 1829.99 1187.09 1829.98ZM1187 1829.52C1187.01 1829.61 1187.02 1829.69 1187.04 1829.77C1187.02 1829.69 1187.01 1829.61 1187 1829.52ZM1155 952.922L1154.99 952.735C1154.99 952.734 1154.99 952.733 1154.99 952.731C1155 952.794 1155 952.858 1155 952.922ZM1154.94 952.431C1154.93 952.408 1154.93 952.385 1154.92 952.362C1154.93 952.385 1154.93 952.408 1154.94 952.431ZM1154.89 952.272C1154.88 952.244 1154.87 952.215 1154.86 952.188C1154.87 952.215 1154.88 952.244 1154.89 952.272ZM1154.82 952.096C1154.81 952.07 1154.8 952.045 1154.78 952.021C1154.8 952.045 1154.81 952.07 1154.82 952.096ZM1154.74 951.947C1154.73 951.914 1154.71 951.882 1154.69 951.85C1154.71 951.882 1154.73 951.914 1154.74 951.947ZM1154.65 951.797C1154.63 951.767 1154.61 951.737 1154.59 951.708C1154.61 951.737 1154.63 951.767 1154.65 951.797ZM1154.54 951.644C1154.51 951.615 1154.49 951.587 1154.46 951.56C1154.49 951.587 1154.51 951.615 1154.54 951.644ZM1154.42 951.519C1154.39 951.487 1154.36 951.456 1154.33 951.427C1154.36 951.456 1154.39 951.487 1154.42 951.519ZM1154.29 951.395C1154.26 951.367 1154.22 951.341 1154.19 951.315C1154.22 951.341 1154.26 951.367 1154.29 951.395ZM1154.14 951.277C1154.11 951.255 1154.07 951.235 1154.04 951.215C1154.07 951.235 1154.11 951.255 1154.14 951.277ZM1153.98 951.181C1153.95 951.162 1153.92 951.146 1153.88 951.129C1153.92 951.146 1153.95 951.162 1153.98 951.181ZM1153.81 951.095C1153.78 951.08 1153.74 951.067 1153.71 951.054C1153.74 951.067 1153.78 951.08 1153.81 951.095ZM1153.08 950.924C1153.28 950.932 1153.47 950.968 1153.64 951.028C1153.53 950.988 1153.4 950.958 1153.28 950.94L1153.08 950.923L549.079 927.082L1153.08 950.924ZM547 929.08V929.081V929.08ZM547.479 927.781V927.782V927.781ZM1498.94 919.263V919.262V919.263ZM1498.52 919.214V919.215V919.214ZM1150.11 918.952C1150.12 918.951 1150.14 918.951 1150.15 918.95C1150.14 918.951 1150.12 918.951 1150.11 918.952ZM1150.35 918.921C1150.36 918.919 1150.37 918.917 1150.38 918.915C1150.37 918.917 1150.36 918.919 1150.35 918.921ZM1150.57 918.866C1150.59 918.861 1150.6 918.856 1150.62 918.851C1150.6 918.856 1150.59 918.861 1150.57 918.866ZM1150.8 918.779C1150.81 918.774 1150.82 918.769 1150.83 918.764C1150.82 918.769 1150.81 918.774 1150.8 918.779ZM1151.01 918.666C1151.02 918.662 1151.03 918.658 1151.03 918.653C1151.03 918.658 1151.02 918.662 1151.01 918.666ZM1151.21 918.53C1151.21 918.528 1151.22 918.525 1151.22 918.522C1151.22 918.525 1151.21 918.528 1151.21 918.53ZM1193.55 918.011C1193.57 918.015 1193.59 918.018 1193.6 918.022C1193.59 918.018 1193.57 918.015 1193.55 918.011ZM1193.42 917.971C1193.44 917.976 1193.46 917.981 1193.47 917.986C1193.46 917.981 1193.44 917.976 1193.42 917.971ZM1193.17 917.858C1193.18 917.865 1193.19 917.872 1193.21 917.878C1193.19 917.871 1193.18 917.865 1193.17 917.858ZM1193.04 917.785C1193.06 917.8 1193.09 917.814 1193.11 917.828C1193.09 917.814 1193.06 917.8 1193.04 917.785ZM1192.93 917.714C1192.96 917.732 1192.98 917.748 1193.01 917.765C1192.98 917.748 1192.96 917.732 1192.93 917.714ZM1192.64 917.455C1192.65 917.464 1192.65 917.473 1192.66 917.482C1192.65 917.473 1192.65 917.464 1192.64 917.455ZM1192.54 917.35C1192.55 917.362 1192.57 917.374 1192.58 917.387C1192.57 917.374 1192.55 917.362 1192.54 917.35ZM1192.46 917.232C1192.47 917.254 1192.49 917.275 1192.5 917.296C1192.49 917.275 1192.47 917.254 1192.46 917.232ZM1192.38 917.119C1192.4 917.143 1192.41 917.166 1192.43 917.189C1192.41 917.166 1192.4 917.143 1192.38 917.119ZM1192.32 917.006C1192.33 917.029 1192.34 917.052 1192.36 917.074C1192.34 917.052 1192.33 917.029 1192.32 917.006ZM1192.26 916.891C1192.27 916.91 1192.28 916.929 1192.29 916.948C1192.28 916.929 1192.27 916.91 1192.26 916.891ZM1192.21 916.759C1192.22 916.781 1192.23 916.804 1192.23 916.826C1192.23 916.804 1192.22 916.781 1192.21 916.759ZM1192.17 916.641C1192.18 916.661 1192.18 916.682 1192.19 916.702C1192.18 916.682 1192.18 916.661 1192.17 916.641ZM1192.13 916.507C1192.14 916.527 1192.14 916.547 1192.15 916.567C1192.14 916.547 1192.14 916.527 1192.13 916.507ZM1192.11 916.375C1192.11 916.397 1192.12 916.418 1192.12 916.439C1192.12 916.418 1192.11 916.397 1192.11 916.375ZM1192.09 916.186C1192.09 916.225 1192.09 916.265 1192.1 916.304C1192.09 916.265 1192.09 916.225 1192.09 916.186ZM1192.09 915.972C1192.09 915.991 1192.09 916.011 1192.09 916.03C1192.09 916.011 1192.09 915.991 1192.09 915.972ZM1192.1 915.843C1192.1 915.859 1192.1 915.876 1192.09 915.893C1192.1 915.876 1192.1 915.859 1192.1 915.843ZM1192.2 915.408C1192.19 915.436 1192.18 915.463 1192.17 915.491C1192.18 915.463 1192.19 915.436 1192.2 915.408ZM1342.63 696.518C1342.58 696.578 1342.53 696.643 1342.48 696.712L1342.48 696.713C1342.57 696.575 1342.68 696.453 1342.8 696.348L1342.63 696.518ZM1496.1 887.82C1496.01 887.842 1495.92 887.859 1495.82 887.868C1495.92 887.859 1496.01 887.842 1496.1 887.82ZM1496.18 887.799C1496.2 887.793 1496.22 887.789 1496.24 887.783C1496.22 887.789 1496.2 887.793 1496.18 887.799ZM1496.34 887.748C1496.35 887.745 1496.36 887.742 1496.36 887.738C1496.36 887.742 1496.35 887.745 1496.34 887.748ZM1496.61 887.621C1496.55 887.657 1496.48 887.689 1496.41 887.718C1496.48 887.689 1496.55 887.657 1496.61 887.621ZM1496.68 887.579C1496.69 887.571 1496.71 887.565 1496.72 887.557C1496.71 887.565 1496.69 887.571 1496.68 887.579ZM1496.78 887.51C1496.8 887.5 1496.81 887.491 1496.83 887.481C1496.81 887.491 1496.8 887.5 1496.78 887.51ZM1496.89 887.433C1496.9 887.421 1496.91 887.41 1496.93 887.397C1496.91 887.41 1496.9 887.421 1496.89 887.433ZM1496.98 887.355C1496.99 887.338 1497.01 887.322 1497.03 887.305C1497.01 887.322 1496.99 887.338 1496.98 887.355ZM1497.06 887.272C1497.08 887.252 1497.1 887.231 1497.12 887.211C1497.1 887.231 1497.08 887.252 1497.06 887.272ZM1497.14 887.179C1497.16 887.156 1497.18 887.134 1497.2 887.11C1497.18 887.134 1497.16 887.156 1497.14 887.179ZM1497.23 887.072C1497.24 887.054 1497.26 887.035 1497.27 887.016C1497.26 887.035 1497.24 887.054 1497.23 887.072ZM1497.31 886.949C1497.32 886.939 1497.33 886.929 1497.33 886.918C1497.33 886.929 1497.32 886.939 1497.31 886.949ZM1497.37 886.846C1497.38 886.829 1497.39 886.813 1497.4 886.796C1497.39 886.813 1497.38 886.829 1497.37 886.846ZM1497.43 886.731C1497.44 886.717 1497.44 886.703 1497.45 886.689C1497.44 886.703 1497.44 886.717 1497.43 886.731ZM1497.48 886.617C1497.49 886.599 1497.5 886.581 1497.5 886.563C1497.5 886.581 1497.49 886.599 1497.48 886.617ZM1497.53 886.493C1497.53 886.482 1497.53 886.47 1497.54 886.459C1497.53 886.47 1497.53 886.482 1497.53 886.493ZM1497.56 886.366C1497.57 886.356 1497.57 886.346 1497.57 886.336C1497.57 886.346 1497.57 886.356 1497.56 886.366ZM1497.61 886.129C1497.61 886.102 1497.62 886.076 1497.62 886.049C1497.62 886.076 1497.61 886.102 1497.61 886.129ZM1497.62 886.01C1497.62 885.983 1497.62 885.957 1497.62 885.931C1497.62 885.957 1497.62 885.983 1497.62 886.01ZM1497.63 885.873C1497.63 885.85 1497.62 885.827 1497.62 885.804C1497.62 885.827 1497.63 885.85 1497.63 885.873ZM1497.62 885.732C1497.62 885.717 1497.62 885.703 1497.62 885.688C1497.62 885.703 1497.62 885.717 1497.62 885.732ZM1497.61 885.612C1497.61 885.589 1497.6 885.566 1497.6 885.543C1497.6 885.566 1497.61 885.589 1497.61 885.612ZM1497.59 885.487C1497.59 885.469 1497.58 885.45 1497.58 885.432C1497.58 885.45 1497.59 885.469 1497.59 885.487ZM1497.18 884.624C1497.24 884.701 1497.3 884.781 1497.35 884.862C1497.32 884.822 1497.3 884.781 1497.27 884.741L1497.18 884.623L1345.68 696.591L1497.18 884.624ZM1343.6 695.914C1343.39 695.973 1343.18 696.069 1342.98 696.202L1343.18 696.082C1343.38 695.974 1343.6 695.902 1343.83 695.868L1343.6 695.914ZM1310.04 687.314C1310 687.398 1309.95 687.481 1309.9 687.562C1309.95 687.481 1310 687.398 1310.04 687.314ZM1310.2 686.886C1310.2 686.858 1310.21 686.831 1310.22 686.803C1310.21 686.831 1310.2 686.858 1310.2 686.886ZM1310.24 686.623C1310.24 686.596 1310.25 686.568 1310.25 686.541C1310.25 686.568 1310.24 686.596 1310.24 686.623ZM1310.2 685.988C1310.19 685.955 1310.18 685.921 1310.17 685.888C1310.18 685.921 1310.19 685.955 1310.2 685.988ZM1310.17 685.855C1310.16 685.828 1310.15 685.802 1310.14 685.775C1310.15 685.802 1310.16 685.828 1310.17 685.855ZM1310.08 685.624C1310.06 685.591 1310.05 685.559 1310.03 685.526C1310.05 685.559 1310.06 685.591 1310.08 685.624ZM1310.02 685.499C1310 685.473 1309.99 685.447 1309.98 685.422C1309.99 685.447 1310 685.473 1310.02 685.499ZM1309.96 685.389C1309.94 685.361 1309.92 685.334 1309.9 685.307C1309.92 685.334 1309.94 685.361 1309.96 685.389ZM1309.88 685.277C1309.87 685.254 1309.85 685.231 1309.83 685.208C1309.85 685.231 1309.87 685.254 1309.88 685.277ZM1309.81 685.174C1309.79 685.154 1309.77 685.135 1309.76 685.115C1309.77 685.135 1309.79 685.154 1309.81 685.174ZM1309.65 685.002C1309.62 684.972 1309.59 684.942 1309.56 684.914C1309.59 684.942 1309.62 684.972 1309.65 685.002ZM1309.54 684.9C1309.52 684.879 1309.49 684.86 1309.47 684.84C1309.49 684.86 1309.52 684.879 1309.54 684.9ZM1309.43 684.815C1309.41 684.798 1309.39 684.78 1309.36 684.764C1309.39 684.78 1309.41 684.798 1309.43 684.815ZM1309.33 684.743C1309.31 684.727 1309.28 684.712 1309.25 684.696C1309.28 684.712 1309.31 684.727 1309.33 684.743ZM1308.87 684.526C1308.99 684.565 1309.11 684.614 1309.21 684.673C1309.11 684.614 1308.99 684.565 1308.87 684.526ZM1158.76 681.541C1158.92 681.587 1159.1 681.613 1159.27 681.616L1308.29 684.43C1308.48 684.433 1308.67 684.464 1308.84 684.518C1308.71 684.478 1308.58 684.45 1308.43 684.438L1308.29 684.43L1159.27 681.615C1159.23 681.614 1159.19 681.612 1159.14 681.608C1158.97 681.594 1158.8 681.558 1158.64 681.503L1158.76 681.541ZM1157.76 680.882V680.883V680.882ZM1078.93 680.099C1079.09 680.102 1079.23 680.087 1079.38 680.058L1079.52 680.022C1079.43 680.049 1079.33 680.068 1079.23 680.081C1079.13 680.094 1079.03 680.1 1078.93 680.098V680.099ZM1080.57 679.295C1080.37 679.569 1080.1 679.785 1079.79 679.923L1079.92 679.859C1080.18 679.722 1080.4 679.531 1080.57 679.296V679.295ZM1080.8 678.912C1080.76 679.004 1080.71 679.092 1080.66 679.175L1080.73 679.047C1080.76 679.003 1080.78 678.958 1080.8 678.912ZM728.885 674.278C729.03 674.095 729.204 673.94 729.398 673.819C729.204 673.94 729.03 674.095 728.885 674.278ZM730.491 673.519C730.335 673.516 730.181 673.531 730.031 673.564L730.259 673.528C730.336 673.521 730.413 673.517 730.491 673.519ZM1325.31 652.439C1325.32 652.436 1325.34 652.434 1325.35 652.432C1325.34 652.434 1325.32 652.436 1325.31 652.439ZM1325.47 652.407C1325.49 652.401 1325.52 652.395 1325.54 652.388C1325.52 652.395 1325.49 652.401 1325.47 652.407ZM1325.65 652.354C1325.68 652.345 1325.7 652.337 1325.73 652.327C1325.7 652.337 1325.68 652.345 1325.65 652.354ZM1325.82 652.284C1325.85 652.273 1325.87 652.262 1325.9 652.249C1325.87 652.262 1325.85 652.273 1325.82 652.284ZM1326 652.193C1326.02 652.183 1326.04 652.173 1326.05 652.162C1326.04 652.173 1326.02 652.183 1326 652.193ZM1326.16 652.093C1326.18 652.079 1326.2 652.064 1326.22 652.05C1326.2 652.064 1326.18 652.079 1326.16 652.093ZM1326.3 651.985C1326.32 651.966 1326.34 651.946 1326.36 651.926C1326.34 651.946 1326.32 651.966 1326.3 651.985ZM1326.43 651.856C1326.45 651.834 1326.47 651.812 1326.5 651.789C1326.47 651.812 1326.45 651.834 1326.43 651.856ZM1326.55 651.721C1326.57 651.695 1326.59 651.668 1326.61 651.642C1326.59 651.669 1326.57 651.695 1326.55 651.721ZM1326.67 651.565C1326.69 651.536 1326.71 651.505 1326.72 651.475C1326.71 651.505 1326.69 651.536 1326.67 651.565ZM1326.76 651.411C1326.78 651.373 1326.8 651.334 1326.82 651.294C1326.8 651.334 1326.78 651.373 1326.76 651.411ZM1326.84 651.238C1326.86 651.203 1326.87 651.167 1326.88 651.131C1326.87 651.167 1326.86 651.203 1326.84 651.238ZM1093.31 650.68V650.681V650.68ZM1092.88 649.095C1092.78 648.971 1092.67 648.86 1092.54 648.763C1092.67 648.86 1092.78 648.971 1092.88 649.095ZM1326.96 544.606C1326.99 544.733 1327 544.865 1327 545C1327 544.865 1326.99 544.733 1326.96 544.606ZM1326.95 544.543C1326.94 544.502 1326.93 544.46 1326.91 544.42C1326.93 544.46 1326.94 544.502 1326.95 544.543ZM1326.89 544.352C1326.88 544.314 1326.86 544.277 1326.85 544.24C1326.86 544.277 1326.88 544.314 1326.89 544.352ZM1326.82 544.176C1326.8 544.141 1326.79 544.105 1326.77 544.071C1326.79 544.105 1326.8 544.141 1326.82 544.176ZM728.849 543.887H728.848H728.849ZM1326.73 543.994C1326.71 543.967 1326.69 543.94 1326.68 543.913C1326.69 543.94 1326.71 543.967 1326.73 543.994ZM1326.63 543.847C1326.61 543.813 1326.58 543.781 1326.56 543.749C1326.58 543.781 1326.61 543.813 1326.63 543.847ZM1326.52 543.706C1326.5 543.675 1326.47 543.645 1326.44 543.616C1326.47 543.645 1326.5 543.675 1326.52 543.706ZM1326.38 543.556C1326.36 543.535 1326.34 543.516 1326.32 543.496C1326.34 543.516 1326.36 543.535 1326.38 543.556ZM1326.24 543.435C1326.22 543.414 1326.19 543.394 1326.16 543.375C1326.19 543.394 1326.22 543.414 1326.24 543.435ZM1326.09 543.326C1326.07 543.308 1326.04 543.291 1326.01 543.274C1326.04 543.291 1326.07 543.308 1326.09 543.326ZM1325.93 543.23C1325.9 543.215 1325.87 543.202 1325.84 543.189C1325.87 543.202 1325.9 543.215 1325.93 543.23ZM1325.76 543.149C1325.73 543.139 1325.7 543.129 1325.68 543.119C1325.7 543.129 1325.73 543.139 1325.76 543.149ZM1325.58 543.086C1325.55 543.078 1325.53 543.072 1325.5 543.065C1325.53 543.072 1325.55 543.078 1325.58 543.086ZM1140.42 542.969C1140.35 542.98 1140.29 542.989 1140.22 542.994V542.995C1140.29 542.99 1140.35 542.98 1140.42 542.969ZM1141.33 542.557C1141.28 542.599 1141.22 542.641 1141.17 542.678C1141.22 542.641 1141.28 542.599 1141.33 542.557ZM1219.24 540.249C1219.22 540.289 1219.21 540.329 1219.2 540.369C1219.21 540.329 1219.22 540.289 1219.24 540.249ZM1198.73 414.474V414.475V414.474ZM1199.87 414.27V414.269V414.27ZM1205.94 399.795V399.796V399.795ZM1298.45 377.174V377.173V377.174ZM1192.09 916.085C1192.09 916.119 1192.09 916.152 1192.09 916.186C1192.09 916.152 1192.09 916.119 1192.09 916.085ZM1310.13 687.119C1310.12 687.142 1310.11 687.165 1310.1 687.188C1310.11 687.165 1310.12 687.142 1310.13 687.119ZM1310.17 686.995C1310.18 686.971 1310.18 686.946 1310.19 686.922C1310.18 686.946 1310.18 686.971 1310.17 686.995ZM1310.23 686.746C1310.23 686.717 1310.24 686.689 1310.24 686.66C1310.24 686.689 1310.23 686.717 1310.23 686.746ZM1310.25 686.481C1310.25 686.454 1310.25 686.427 1310.25 686.399C1310.25 686.427 1310.25 686.454 1310.25 686.481ZM1310.25 686.349C1310.25 686.32 1310.25 686.292 1310.24 686.264C1310.25 686.292 1310.25 686.32 1310.25 686.349ZM1310.24 686.242C1310.24 686.207 1310.23 686.172 1310.23 686.138C1310.23 686.172 1310.24 686.207 1310.24 686.242ZM1310.22 686.095C1310.22 686.066 1310.21 686.037 1310.21 686.008C1310.21 686.037 1310.22 686.066 1310.22 686.095ZM1310.12 685.729C1310.11 685.697 1310.1 685.666 1310.08 685.635C1310.1 685.666 1310.11 685.697 1310.12 685.729ZM1309.72 685.073C1309.7 685.049 1309.68 685.025 1309.65 685.002C1309.68 685.025 1309.7 685.049 1309.72 685.073ZM1326.91 651.051C1326.93 650.999 1326.94 650.947 1326.95 650.894C1326.94 650.947 1326.93 650.999 1326.91 651.051Z" fill="white"></path>
<path d="M1189 1832.5V951L1502.5 919V1689.5L1189 1832.5Z" fill="#EC731C"></path>
<path d="M1346 694.5L1192 918.5L1501.5 887.5L1346 694.5Z" fill="#EC731C"></path>
<path d="M1256.76 458.721C1257.13 459.02 1257.24 459.537 1257.03 459.966C1256.93 460.168 1256.84 460.372 1256.75 460.579L1134.71 734.401C1134.5 734.872 1134.68 735.425 1135.13 735.685C1148.59 743.527 1157 754.655 1157 767C1157 790.748 1125.88 810 1087.5 810C1049.12 810 1018 790.748 1018 767C1018 749.1 1035.68 733.757 1060.82 727.284C1061.12 727.208 1061.37 727 1061.49 726.72L1200.53 414.766C1200.79 414.166 1201.56 413.983 1202.07 414.397L1256.76 458.721ZM1514.23 472.421C1514.73 472.646 1514.96 473.237 1514.73 473.741L1487.05 535.852C1486.83 536.356 1486.23 536.583 1485.73 536.358L1288.44 448.428C1288.25 448.345 1288.14 448.149 1288.17 447.947L1299.28 378.001C1299.38 377.351 1300.07 376.977 1300.67 377.244L1514.23 472.421ZM1261.33 443.288C1261.7 444.243 1260.56 445.067 1259.77 444.423L1207.54 402.1C1207.16 401.788 1207.06 401.243 1207.31 400.819C1213.95 389.819 1223.36 381.255 1234.22 375.637C1234.74 375.366 1235.38 375.616 1235.59 376.167L1261.33 443.288ZM1247.73 371.512C1247.52 370.962 1247.83 370.348 1248.4 370.199C1260.58 367.025 1273.71 367.202 1286.34 371.283C1286.8 371.433 1287.09 371.9 1287.01 372.382L1276.19 440.521C1276.03 441.531 1274.64 441.677 1274.27 440.722L1247.73 371.512Z" fill="#EC731C"></path>
<path d="M1048.6 679.487L1038.58 701.975C1027.69 706.299 1017.55 712.252 1009.12 719.93C997.119 730.849 987.31 746.62 987.007 766.071L987 767C987 793.572 1004.31 812.792 1022.05 823.768C1040.26 835.04 1063.49 841 1087.5 841C1111.51 841 1134.74 835.04 1152.95 823.768C1170.69 812.792 1188 793.572 1188 767C1188 750.595 1181.43 737.019 1172.2 726.424L1191.91 682.194L1314 684.5L1153 919L556 895.5L731.5 673.5L1048.6 679.487ZM1158.26 681.559L1134.71 734.4C1134.5 734.871 1134.68 735.425 1135.13 735.685L1135.75 736.055C1148.85 743.875 1157 754.848 1157 767C1157 790.748 1125.88 810 1087.5 810C1049.12 810 1018 790.748 1018 767C1018 749.1 1035.68 733.757 1060.82 727.284C1061.08 727.217 1061.31 727.051 1061.44 726.822L1061.49 726.721L1082.26 680.123L1158.26 681.559Z" fill="#EC731C"></path>
<path d="M1329 652.5L1206.11 650.342L1253.95 543H1329V652.5ZM1172.43 649.75L1096.39 648.415L1143.38 543H1220.01L1172.43 649.75ZM1062.71 647.824L731 642L730.5 543H1109.43L1062.71 647.824Z" fill="#EC731C"></path>
<path d="M1157 951V1833L549 1758V927L1157 951ZM816 1089.66C837.505 1104.21 842.297 1148.26 841.797 1181.14C721.928 1185.43 626 1289.61 626 1417.5C626 1548.12 726.064 1654 849.5 1654C972.936 1654 1073 1548.12 1073 1417.5C1073 1294.68 984.525 1193.73 871.339 1182.12C870.718 1129.73 851.366 1092.73 840.5 1079.66L816 1089.66ZM1061.22 1042.03C1026.35 1026.21 984.616 1026.87 948.927 1047.48C913.237 1068.09 891.799 1103.89 888.066 1142C922.936 1157.82 964.666 1157.16 1000.36 1136.56C1036.05 1115.95 1057.48 1080.14 1061.22 1042.03Z" fill="#EC731C"></path>
<path d="M877.307 1226C877.344 1226 877.382 1226 877.419 1226C877.628 1226.01 877.836 1226.02 878.045 1226.03C878.048 1226.03 878.051 1226.03 878.054 1226.03C878.247 1226.04 878.44 1226.06 878.633 1226.08C878.7 1226.08 878.767 1226.09 878.834 1226.1C878.963 1226.11 879.091 1226.13 879.22 1226.14C879.3 1226.15 879.38 1226.16 879.46 1226.18C879.601 1226.2 879.742 1226.22 879.883 1226.24C879.931 1226.25 879.98 1226.26 880.028 1226.27C880.186 1226.29 880.344 1226.32 880.502 1226.36C880.556 1226.37 880.611 1226.38 880.665 1226.39C881.07 1226.47 881.475 1226.57 881.879 1226.69C881.927 1226.7 881.975 1226.71 882.022 1226.73C882.162 1226.77 882.301 1226.81 882.44 1226.85C882.531 1226.88 882.622 1226.91 882.713 1226.94C882.769 1226.96 882.826 1226.98 882.883 1227C882.883 1227 882.884 1227 882.884 1227C882.884 1227 882.884 1227 882.885 1227C892.491 1230.23 901.621 1241.1 907.44 1256.06C908.622 1259.1 906.882 1262.5 903.624 1262.56C896.783 1262.68 888.937 1259.55 881.26 1253.86C881.137 1253.77 880.958 1253.83 880.924 1253.98C880.908 1254.05 880.892 1254.13 880.876 1254.2C880.811 1254.48 880.745 1254.76 880.678 1255.04C880.64 1255.2 880.601 1255.36 880.562 1255.52C880.511 1255.73 880.458 1255.94 880.404 1256.15C880.363 1256.31 880.322 1256.47 880.279 1256.63C880.219 1256.86 880.158 1257.09 880.097 1257.32C880.055 1257.47 880.012 1257.62 879.97 1257.78C879.907 1258 879.844 1258.23 879.779 1258.45C879.745 1258.57 879.71 1258.69 879.676 1258.8C879.598 1259.07 879.519 1259.33 879.438 1259.6C879.408 1259.7 879.377 1259.8 879.346 1259.9C879.27 1260.15 879.193 1260.39 879.115 1260.63C879.081 1260.74 879.047 1260.84 879.013 1260.95C878.927 1261.21 878.839 1261.47 878.751 1261.73C878.724 1261.81 878.699 1261.89 878.672 1261.97C878.572 1262.26 878.469 1262.55 878.366 1262.83C878.339 1262.91 878.312 1262.99 878.284 1263.07C878.198 1263.3 878.11 1263.54 878.021 1263.77C877.975 1263.9 877.931 1264.02 877.884 1264.14C877.802 1264.36 877.717 1264.57 877.633 1264.79C877.587 1264.9 877.543 1265.02 877.497 1265.13C877.393 1265.39 877.286 1265.65 877.179 1265.91C877.152 1265.97 877.125 1266.04 877.099 1266.1C876.999 1266.34 876.898 1266.57 876.797 1266.81C876.752 1266.91 876.708 1267.01 876.663 1267.12C875.382 1270.02 873.938 1272.67 872.355 1275.04C872.327 1275.08 872.296 1275.12 872.268 1275.17C872.124 1275.38 871.981 1275.59 871.835 1275.8C871.782 1275.87 871.728 1275.95 871.675 1276.02C871.553 1276.19 871.431 1276.36 871.308 1276.53C871.247 1276.61 871.185 1276.7 871.124 1276.78C870.994 1276.95 870.865 1277.12 870.733 1277.29C870.694 1277.34 870.655 1277.39 870.615 1277.45C870.464 1277.64 870.311 1277.83 870.157 1278.02C870.124 1278.06 870.091 1278.1 870.058 1278.14C869.904 1278.33 869.75 1278.51 869.595 1278.7C869.552 1278.75 869.509 1278.8 869.466 1278.85C869.321 1279.01 869.175 1279.18 869.028 1279.34C868.974 1279.4 868.919 1279.46 868.865 1279.52C868.72 1279.68 868.574 1279.84 868.427 1279.99C868.383 1280.04 868.339 1280.09 868.295 1280.13C868.129 1280.31 867.963 1280.48 867.795 1280.64C867.768 1280.67 867.742 1280.7 867.716 1280.72C867.549 1280.89 867.38 1281.05 867.211 1281.21C867.165 1281.25 867.12 1281.29 867.074 1281.34C866.923 1281.48 866.77 1281.62 866.617 1281.75C866.562 1281.8 866.507 1281.85 866.452 1281.9C866.289 1282.04 866.124 1282.18 865.959 1282.32C865.92 1282.35 865.882 1282.39 865.844 1282.42C865.669 1282.56 865.494 1282.7 865.317 1282.84C865.282 1282.87 865.247 1282.9 865.211 1282.93C865.026 1283.07 864.839 1283.21 864.652 1283.35C864.627 1283.37 864.601 1283.38 864.575 1283.4C864.382 1283.54 864.189 1283.68 863.994 1283.81C863.972 1283.83 863.949 1283.84 863.927 1283.86C862.565 1284.78 861.156 1285.52 859.708 1286.08C859.598 1286.12 859.489 1286.16 859.379 1286.2C859.262 1286.24 859.145 1286.28 859.027 1286.32C858.916 1286.36 858.805 1286.39 858.693 1286.43C858.578 1286.46 858.462 1286.5 858.346 1286.53C858.235 1286.57 858.125 1286.6 858.014 1286.63C857.884 1286.66 857.754 1286.7 857.623 1286.73C857.521 1286.75 857.42 1286.78 857.317 1286.8C857.218 1286.82 857.118 1286.85 857.018 1286.87C856.88 1286.89 856.741 1286.92 856.603 1286.95C856.506 1286.96 856.41 1286.98 856.313 1287C856.172 1287.02 856.031 1287.04 855.89 1287.06C855.139 1287.17 854.381 1287.22 853.616 1287.22C849.314 1287.22 845.228 1285.55 841.543 1282.55C841.467 1282.49 841.391 1282.42 841.315 1282.36C841.185 1282.25 841.054 1282.14 840.925 1282.03C840.832 1281.95 840.741 1281.87 840.648 1281.78C840.545 1281.69 840.44 1281.6 840.338 1281.51C840.235 1281.41 840.134 1281.31 840.031 1281.22C839.93 1281.12 839.827 1281.03 839.727 1280.93C839.644 1280.85 839.563 1280.77 839.48 1280.69C839.172 1280.38 838.866 1280.07 838.564 1279.74C838.468 1279.64 838.373 1279.53 838.277 1279.42C838.184 1279.32 838.09 1279.22 837.997 1279.11C837.894 1279 837.793 1278.88 837.69 1278.76C837.601 1278.65 837.51 1278.55 837.421 1278.44C837.317 1278.32 837.215 1278.19 837.111 1278.07C837.045 1277.98 836.976 1277.9 836.91 1277.82L836.855 1277.75C836.75 1277.62 836.647 1277.49 836.543 1277.35C836.474 1277.26 836.404 1277.17 836.336 1277.08C836.217 1276.93 836.101 1276.77 835.983 1276.61C835.924 1276.53 835.864 1276.45 835.806 1276.37C835.726 1276.26 835.648 1276.15 835.568 1276.04C835.469 1275.9 835.367 1275.76 835.269 1275.62C835.143 1275.43 835.019 1275.25 834.896 1275.07C834.853 1275 834.81 1274.94 834.769 1274.88C834.664 1274.72 834.561 1274.56 834.458 1274.4C834.393 1274.3 834.326 1274.2 834.261 1274.1C834.172 1273.96 834.086 1273.81 833.998 1273.67C833.917 1273.54 833.834 1273.41 833.754 1273.28C833.675 1273.15 833.599 1273.01 833.521 1272.88C833.439 1272.74 833.355 1272.61 833.274 1272.47C833.175 1272.3 833.078 1272.12 832.98 1271.95C832.92 1271.84 832.859 1271.73 832.8 1271.63C832.531 1271.14 832.268 1270.65 832.01 1270.14C831.969 1270.06 831.928 1269.99 831.888 1269.91C831.476 1269.09 831.081 1268.26 830.697 1267.4C830.662 1267.32 830.625 1267.24 830.59 1267.17C830.487 1266.93 830.387 1266.7 830.286 1266.46C830.252 1266.38 830.217 1266.3 830.184 1266.22C828.443 1262.1 827.026 1257.51 826 1252.57C825.994 1252.54 825.988 1252.51 825.982 1252.49C825.712 1251.18 824.149 1250.58 823.065 1251.36C816.422 1256.15 809.678 1259 803.592 1259.49C800.071 1259.77 798.038 1256.12 799.455 1252.88C805.65 1238.73 814.863 1228.81 824.38 1226.51C824.381 1226.51 824.382 1226.51 824.382 1226.51C824.383 1226.51 824.383 1226.51 824.384 1226.51C824.439 1226.5 824.494 1226.48 824.549 1226.47C824.577 1226.46 824.605 1226.46 824.634 1226.45C825.026 1226.36 825.418 1226.29 825.811 1226.22C825.827 1226.22 825.844 1226.22 825.861 1226.21C826.036 1226.19 826.211 1226.16 826.386 1226.14C826.417 1226.14 826.448 1226.13 826.479 1226.13C826.859 1226.08 827.239 1226.05 827.619 1226.03C827.661 1226.02 827.702 1226.02 827.744 1226.02C828.124 1226 828.503 1226 828.883 1226C828.917 1226 828.951 1226.01 828.985 1226.01C829.153 1226.01 829.321 1226.02 829.488 1226.03C829.515 1226.03 829.542 1226.03 829.569 1226.03C829.762 1226.04 829.954 1226.06 830.146 1226.07C830.167 1226.08 830.187 1226.08 830.207 1226.08C830.383 1226.1 830.559 1226.12 830.734 1226.14C830.761 1226.15 830.788 1226.15 830.815 1226.15C831.003 1226.18 831.19 1226.21 831.377 1226.24C831.384 1226.24 831.391 1226.24 831.398 1226.24C831.608 1226.28 831.817 1226.32 832.024 1226.36C832.154 1226.39 832.284 1226.42 832.413 1226.45C832.437 1226.46 832.461 1226.46 832.485 1226.47C832.533 1226.48 832.58 1226.49 832.627 1226.5C832.82 1226.55 833.012 1226.6 833.203 1226.66C833.268 1226.68 833.333 1226.7 833.398 1226.72C833.444 1226.73 833.489 1226.74 833.534 1226.76L833.607 1226.78C833.655 1226.8 833.703 1226.81 833.751 1226.83C833.798 1226.84 833.845 1226.86 833.893 1226.88C834.209 1226.98 834.521 1227.1 834.831 1227.23C834.87 1227.24 834.909 1227.26 834.947 1227.27C835.148 1227.36 835.346 1227.44 835.544 1227.53C835.566 1227.54 835.588 1227.55 835.609 1227.56C837.365 1228.38 839.007 1229.5 840.53 1230.88C840.546 1230.9 840.561 1230.91 840.576 1230.93C840.75 1231.09 840.923 1231.25 841.094 1231.42C841.116 1231.44 841.138 1231.46 841.16 1231.48C847.502 1237.71 851.599 1248.74 852.548 1261.98C852.557 1262.1 852.658 1262.2 852.783 1262.21C852.914 1262.21 853.025 1262.11 853.034 1261.98C853.891 1250.03 857.314 1239.87 862.64 1233.43C862.745 1233.3 862.851 1233.17 862.958 1233.05C862.998 1233 863.037 1232.95 863.077 1232.91C863.202 1232.77 863.327 1232.62 863.454 1232.49C863.521 1232.41 863.588 1232.34 863.656 1232.26C863.788 1232.12 863.922 1231.98 864.056 1231.85C864.122 1231.78 864.188 1231.71 864.255 1231.64C864.388 1231.51 864.523 1231.38 864.658 1231.25C864.736 1231.17 864.814 1231.1 864.893 1231.03C864.986 1230.94 865.081 1230.86 865.176 1230.77C865.277 1230.68 865.379 1230.59 865.481 1230.5C865.606 1230.39 865.732 1230.29 865.858 1230.18C865.915 1230.14 865.971 1230.09 866.027 1230.04C866.04 1230.03 866.052 1230.02 866.064 1230.01C867.205 1229.1 868.409 1228.32 869.671 1227.71C869.697 1227.69 869.724 1227.68 869.75 1227.67C869.844 1227.62 869.939 1227.58 870.034 1227.54C870.069 1227.52 870.103 1227.5 870.138 1227.49C870.773 1227.2 871.423 1226.95 872.086 1226.75C872.095 1226.74 872.104 1226.74 872.112 1226.74C872.232 1226.7 872.353 1226.67 872.474 1226.63C872.502 1226.62 872.531 1226.62 872.56 1226.61C872.673 1226.58 872.787 1226.55 872.901 1226.52C872.912 1226.51 872.922 1226.51 872.933 1226.51C873.198 1226.44 873.466 1226.38 873.735 1226.33C873.746 1226.32 873.757 1226.32 873.769 1226.32C873.907 1226.29 874.045 1226.27 874.185 1226.24C874.393 1226.21 874.601 1226.17 874.81 1226.15C874.835 1226.14 874.861 1226.14 874.887 1226.14C875.056 1226.11 875.226 1226.1 875.396 1226.08C875.463 1226.07 875.53 1226.07 875.598 1226.06C875.732 1226.05 875.867 1226.04 876.002 1226.03C876.07 1226.03 876.137 1226.02 876.205 1226.02C876.348 1226.01 876.49 1226.01 876.633 1226.01C876.692 1226 876.752 1226 876.812 1226C876.977 1226 877.142 1226 877.307 1226Z" fill="#EC731C"></path>
</svg><style>@media (prefers-color-scheme: light) { :root { filter: none; } }
@media (prefers-color-scheme: dark) { :root { filter: none; } }
</style></svg>