<svg width="2065" height="2065" viewBox="0 0 2065 2065" fill="none" xmlns="http://www.w3.org/2000/svg">
<path d="M1250.47 220.598C1268 216.21 1286.82 216.567 1304.97 222.443L1305.86 222.736L1305.87 222.737C1309.37 223.91 1312.55 225.629 1315.36 227.772C1317.89 228.174 1320.42 228.892 1322.92 229.951L1323.85 230.364L1544.46 331.988L1544.47 331.992C1561.15 339.681 1568.63 359.881 1561.2 377.105L1532.61 443.422C1525.18 460.636 1505.65 468.409 1488.96 460.727L1488.95 460.723L1291.75 369.879L1276.83 404.481H1338.02C1356.85 404.481 1372.11 420.257 1372.11 439.716V552.325C1372.11 558.465 1370.59 564.234 1367.92 569.256C1373.94 571.183 1379.56 574.881 1383.99 580.381L1384.32 580.809L1540.82 781.577C1550.05 793.415 1550.37 808.437 1544.42 820.137C1548.75 826.026 1551.33 833.381 1551.33 841.414V1660.36C1551.33 1674.17 1543.53 1686.69 1531.4 1692.43L1211.68 1843.16C1200.75 1848.3 1189.11 1846.98 1180 1841.32C1173.35 1846.19 1164.99 1848.64 1156.16 1847.51L532.222 1767.96C515.138 1765.78 502.306 1750.78 502.306 1732.99V849.812C502.306 839.42 506.651 830.111 513.537 823.675C509.873 812.978 511.075 800.442 518.957 790.136L695.305 559.565C692.162 554.26 690.337 548.03 690.304 541.366L689.809 439.894C689.713 420.366 705.003 404.481 723.898 404.481H1127.54L1178.12 287.187C1179.4 284.213 1181.03 281.54 1182.93 279.183C1183.67 275.572 1185.01 272.022 1186.96 268.677V268.675C1196.96 251.537 1211.14 238.205 1227.45 229.482L1228.3 229.049C1231.57 227.41 1234.96 226.389 1238.35 225.927C1241.41 223.76 1244.89 222.082 1248.75 221.044L1250.47 220.598ZM1162.35 1813.01C1162.34 1813.08 1162.32 1813.14 1162.3 1813.21C1162.34 1813.07 1162.37 1812.93 1162.39 1812.78L1162.35 1813.01ZM1162.4 875.269L1162.39 875.069C1162.39 875.068 1162.39 875.067 1162.39 875.065C1162.4 875.132 1162.4 875.201 1162.4 875.269ZM1160.42 873.136C1160.63 873.144 1160.82 873.183 1161 873.247C1160.88 873.204 1160.75 873.172 1160.63 873.153L1160.42 873.134L536.477 847.679L1160.42 873.136ZM1201.83 837.83C1201.84 837.837 1201.85 837.845 1201.87 837.851C1201.85 837.844 1201.84 837.837 1201.83 837.83ZM1356.23 601.497C1356.18 601.561 1356.12 601.631 1356.07 601.704V601.705C1356.17 601.558 1356.28 601.428 1356.4 601.316L1356.23 601.497ZM1515.88 802.345C1515.94 802.427 1516 802.512 1516.06 802.599C1516.03 802.556 1516 802.512 1515.97 802.47L1515.88 802.344L1359.38 601.575L1515.88 802.345ZM1357.23 600.852C1357.01 600.915 1356.8 601.018 1356.59 601.16L1356.8 601.032C1357 600.916 1357.23 600.84 1357.47 600.803L1357.23 600.852ZM1166.29 585.506C1166.45 585.555 1166.64 585.583 1166.81 585.586L1320.75 588.59C1320.95 588.594 1321.15 588.627 1321.32 588.684C1321.19 588.642 1321.05 588.612 1320.9 588.599L1320.75 588.59L1166.81 585.585C1166.77 585.584 1166.73 585.582 1166.68 585.577C1166.5 585.562 1166.33 585.524 1166.16 585.465L1166.29 585.506ZM1083.82 583.966C1083.99 583.969 1084.13 583.953 1084.29 583.922L1084.43 583.884C1084.34 583.913 1084.23 583.933 1084.13 583.947C1084.03 583.961 1083.92 583.968 1083.82 583.966ZM1085.52 583.108C1085.31 583.4 1085.03 583.631 1084.71 583.778L1084.84 583.71C1085.11 583.564 1085.34 583.36 1085.52 583.109V583.108ZM1085.75 582.699C1085.71 582.797 1085.66 582.891 1085.61 582.98L1085.68 582.843C1085.71 582.796 1085.73 582.748 1085.75 582.699ZM723.878 576.94C723.717 576.937 723.558 576.953 723.403 576.988L723.639 576.95C723.718 576.943 723.798 576.938 723.878 576.94ZM1339.62 553.666C1339.64 553.638 1339.66 553.609 1339.68 553.582C1339.66 553.61 1339.64 553.638 1339.62 553.666Z" fill="white"/>
<path d="M1197.53 1814.43V873.217L1521.38 839.049V1661.74L1197.53 1814.43Z" fill="#EC731C"/>
<path d="M1359.71 599.343L1200.62 838.515L1520.34 805.415L1359.71 599.343Z" fill="#EC731C"/>
<path d="M1267.52 347.593C1267.91 347.912 1268.02 348.464 1267.8 348.922C1267.7 349.138 1267.61 349.356 1267.51 349.577L1141.44 641.946C1141.23 642.449 1141.41 643.04 1141.88 643.317C1155.78 651.69 1164.47 663.572 1164.47 676.753C1164.47 702.11 1132.32 722.666 1092.67 722.666C1053.03 722.666 1020.88 702.11 1020.88 676.753C1020.88 657.641 1039.14 641.259 1065.11 634.347C1065.42 634.266 1065.68 634.044 1065.81 633.745L1209.44 300.661C1209.71 300.02 1210.5 299.825 1211.03 300.267L1267.52 347.593ZM1533.49 362.221C1534.01 362.461 1534.25 363.092 1534.01 363.63L1505.42 429.948C1505.19 430.487 1504.57 430.729 1504.05 430.489L1300.25 336.603C1300.05 336.514 1299.94 336.305 1299.97 336.089L1311.45 261.405C1311.55 260.711 1312.26 260.312 1312.88 260.597L1533.49 362.221ZM1272.24 331.115C1272.63 332.134 1271.45 333.014 1270.63 332.327L1216.68 287.137C1216.29 286.804 1216.18 286.222 1216.44 285.769C1223.3 274.024 1233.02 264.88 1244.24 258.881C1244.78 258.592 1245.44 258.859 1245.65 259.447L1272.24 331.115ZM1258.19 254.477C1257.98 253.89 1258.3 253.234 1258.89 253.075C1271.47 249.686 1285.03 249.875 1298.08 254.232C1298.55 254.393 1298.85 254.891 1298.77 255.406L1287.59 328.16C1287.43 329.239 1285.99 329.395 1285.61 328.375L1258.19 254.477Z" fill="#EC731C"/>
<path d="M1052.49 583.313L1042.14 607.324C1030.89 611.941 1020.42 618.297 1011.71 626.495C999.31 638.154 989.177 654.993 988.864 675.761L988.856 676.753C988.856 705.125 1006.74 725.647 1025.06 737.367C1043.87 749.402 1067.87 755.766 1092.67 755.766C1117.48 755.766 1141.47 749.402 1160.29 737.367C1178.61 725.647 1196.49 705.125 1196.49 676.753C1196.49 659.237 1189.71 644.742 1180.17 633.429L1200.53 586.203L1326.65 588.665L1160.34 839.049L543.626 813.957L724.921 576.92L1052.49 583.313ZM1165.77 585.525L1141.44 641.945C1141.23 642.448 1141.41 643.04 1141.88 643.317L1142.52 643.712C1156.05 652.062 1164.47 663.778 1164.47 676.753C1164.47 702.11 1132.32 722.666 1092.67 722.666C1053.03 722.666 1020.88 702.11 1020.88 676.753C1020.88 657.641 1039.14 641.259 1065.11 634.347C1065.38 634.276 1065.62 634.098 1065.75 633.854L1065.81 633.746L1087.26 583.992L1165.77 585.525Z" fill="#EC731C"/>
<path d="M1342.15 554.498L1215.2 552.194L1264.62 437.581H1342.15V554.498ZM1180.41 551.561L1101.86 550.136L1150.4 437.581H1229.56L1180.41 551.561ZM1067.07 549.505L724.404 543.286L723.888 437.581H1115.33L1067.07 549.505Z" fill="#EC731C"/>
<path d="M1164.47 873.217V1814.96L536.395 1734.88V847.591L1164.47 873.217ZM812.211 1021.27C834.426 1036.8 839.376 1083.84 838.859 1118.95C715.033 1123.53 615.937 1234.76 615.937 1371.32C615.937 1510.78 719.305 1623.83 846.817 1623.83C974.328 1623.83 1077.7 1510.78 1077.7 1371.32C1077.7 1240.18 986.3 1132.39 869.377 1119.99C868.735 1064.05 848.744 1024.55 837.52 1010.59L812.211 1021.27ZM1065.53 970.413C1029.51 953.521 986.394 954.226 949.526 976.232C912.658 998.238 890.512 1036.46 886.656 1077.15C922.677 1094.05 965.785 1093.34 1002.66 1071.35C1039.53 1049.34 1061.66 1011.1 1065.53 970.413Z" fill="#EC731C"/>
<path d="M875.542 1166.84C875.58 1166.84 875.619 1166.84 875.657 1166.84C875.873 1166.85 876.088 1166.87 876.304 1166.88C876.307 1166.88 876.31 1166.88 876.313 1166.88C876.513 1166.89 876.712 1166.91 876.911 1166.93C876.981 1166.93 877.05 1166.94 877.119 1166.95C877.252 1166.96 877.385 1166.98 877.518 1166.99C877.6 1167 877.683 1167.01 877.766 1167.04C877.911 1167.06 878.057 1167.08 878.203 1167.1C878.252 1167.11 878.303 1167.12 878.353 1167.13C878.516 1167.15 878.679 1167.19 878.842 1167.23C878.898 1167.24 878.955 1167.25 879.011 1167.26C879.429 1167.35 879.847 1167.45 880.265 1167.58C880.314 1167.59 880.364 1167.6 880.412 1167.62C880.557 1167.67 880.701 1167.71 880.844 1167.75C880.938 1167.78 881.032 1167.82 881.126 1167.85C881.184 1167.87 881.243 1167.89 881.302 1167.91C881.302 1167.91 881.303 1167.91 881.304 1167.91C891.227 1171.36 900.658 1182.97 906.67 1198.94C907.891 1202.19 906.093 1205.82 902.728 1205.88C895.661 1206.01 887.556 1202.67 879.625 1196.59C879.498 1196.49 879.313 1196.56 879.278 1196.72C879.262 1196.79 879.245 1196.88 879.229 1196.95C879.161 1197.25 879.093 1197.55 879.024 1197.85C878.985 1198.02 878.944 1198.19 878.904 1198.36C878.851 1198.59 878.797 1198.81 878.741 1199.04C878.699 1199.21 878.656 1199.38 878.612 1199.55C878.55 1199.79 878.487 1200.04 878.424 1200.29C878.38 1200.45 878.336 1200.61 878.293 1200.78C878.228 1201.01 878.162 1201.26 878.095 1201.49C878.06 1201.62 878.024 1201.75 877.989 1201.87C877.908 1202.15 877.827 1202.43 877.743 1202.72C877.712 1202.83 877.68 1202.93 877.648 1203.04C877.57 1203.31 877.49 1203.56 877.409 1203.82C877.374 1203.94 877.339 1204.04 877.304 1204.16C877.215 1204.44 877.124 1204.72 877.033 1204.99C877.005 1205.08 876.98 1205.16 876.952 1205.25C876.848 1205.56 876.742 1205.87 876.636 1206.17C876.608 1206.25 876.58 1206.34 876.551 1206.42C876.462 1206.67 876.371 1206.93 876.279 1207.17C876.232 1207.31 876.186 1207.44 876.138 1207.57C876.053 1207.8 875.965 1208.03 875.878 1208.26C875.831 1208.38 875.786 1208.51 875.738 1208.62C875.631 1208.9 875.52 1209.18 875.409 1209.46C875.382 1209.52 875.354 1209.6 875.327 1209.66C875.224 1209.92 875.119 1210.16 875.015 1210.42C874.968 1210.52 874.923 1210.63 874.876 1210.75C873.553 1213.85 872.061 1216.68 870.426 1219.21C870.397 1219.25 870.365 1219.29 870.336 1219.34C870.188 1219.57 870.04 1219.79 869.889 1220.02C869.834 1220.09 869.778 1220.18 869.724 1220.25C869.598 1220.43 869.472 1220.62 869.345 1220.8C869.282 1220.88 869.218 1220.98 869.155 1221.06C869.02 1221.25 868.887 1221.43 868.751 1221.61C868.71 1221.66 868.67 1221.71 868.629 1221.78C868.473 1221.98 868.315 1222.18 868.156 1222.39C868.122 1222.43 868.087 1222.47 868.053 1222.52C867.894 1222.72 867.735 1222.91 867.575 1223.11C867.531 1223.17 867.486 1223.22 867.442 1223.27C867.292 1223.44 867.141 1223.63 866.989 1223.8C866.934 1223.86 866.877 1223.93 866.821 1223.99C866.671 1224.16 866.52 1224.33 866.369 1224.49C866.323 1224.54 866.278 1224.6 866.232 1224.64C866.061 1224.83 865.889 1225.01 865.716 1225.18C865.688 1225.22 865.661 1225.25 865.634 1225.27C865.462 1225.45 865.287 1225.62 865.112 1225.79C865.065 1225.84 865.018 1225.88 864.971 1225.93C864.815 1226.08 864.657 1226.23 864.499 1226.37C864.442 1226.42 864.385 1226.48 864.328 1226.53C864.16 1226.68 863.989 1226.83 863.819 1226.98C863.779 1227.01 863.739 1227.05 863.7 1227.09C863.519 1227.24 863.339 1227.38 863.156 1227.53C863.12 1227.57 863.084 1227.6 863.046 1227.63C862.855 1227.78 862.662 1227.93 862.469 1228.08C862.443 1228.1 862.416 1228.11 862.389 1228.13C862.19 1228.28 861.991 1228.43 861.789 1228.57C861.766 1228.59 861.743 1228.6 861.72 1228.62C860.313 1229.61 858.857 1230.4 857.362 1230.99C857.248 1231.04 857.135 1231.08 857.022 1231.12C856.901 1231.16 856.78 1231.21 856.658 1231.25C856.543 1231.29 856.429 1231.32 856.313 1231.37C856.194 1231.4 856.075 1231.44 855.955 1231.47C855.84 1231.52 855.726 1231.55 855.612 1231.58C855.477 1231.61 855.343 1231.66 855.208 1231.69C855.102 1231.71 854.998 1231.74 854.892 1231.76C854.789 1231.78 854.686 1231.82 854.583 1231.84C854.44 1231.86 854.297 1231.89 854.154 1231.92C854.054 1231.93 853.955 1231.95 853.855 1231.98C853.709 1232 853.563 1232.02 853.418 1232.04C852.642 1232.16 851.859 1232.21 851.069 1232.21C846.625 1232.21 842.404 1230.43 838.597 1227.22C838.518 1227.16 838.44 1227.09 838.361 1227.02C838.227 1226.9 838.092 1226.79 837.958 1226.67C837.862 1226.58 837.768 1226.5 837.672 1226.4C837.566 1226.31 837.457 1226.21 837.352 1226.11C837.246 1226.01 837.141 1225.9 837.035 1225.8C836.931 1225.7 836.824 1225.6 836.721 1225.49C836.635 1225.41 836.552 1225.32 836.466 1225.24C836.148 1224.91 835.832 1224.58 835.52 1224.22C835.42 1224.12 835.322 1224 835.223 1223.88C835.127 1223.78 835.03 1223.67 834.934 1223.55C834.827 1223.43 834.723 1223.31 834.617 1223.18C834.525 1223.06 834.431 1222.95 834.339 1222.84C834.231 1222.71 834.126 1222.57 834.019 1222.44C833.95 1222.34 833.879 1222.26 833.811 1222.17L833.754 1222.1C833.646 1221.96 833.539 1221.82 833.432 1221.67C833.361 1221.58 833.288 1221.48 833.218 1221.38C833.095 1221.22 832.975 1221.05 832.853 1220.88C832.792 1220.8 832.73 1220.71 832.671 1220.63C832.588 1220.51 832.507 1220.39 832.425 1220.27C832.322 1220.12 832.217 1219.97 832.116 1219.82C831.986 1219.62 831.857 1219.43 831.73 1219.24C831.686 1219.16 831.642 1219.1 831.599 1219.03C831.491 1218.86 831.384 1218.69 831.278 1218.52C831.211 1218.42 831.142 1218.31 831.074 1218.2C830.983 1218.05 830.894 1217.89 830.803 1217.74C830.719 1217.6 830.633 1217.47 830.551 1217.33C830.469 1217.19 830.391 1217.04 830.31 1216.9C830.225 1216.75 830.139 1216.61 830.055 1216.46C829.953 1216.28 829.852 1216.09 829.751 1215.91C829.689 1215.79 829.626 1215.67 829.565 1215.56C829.287 1215.04 829.016 1214.52 828.749 1213.97C828.707 1213.89 828.664 1213.81 828.623 1213.73C828.198 1212.85 827.79 1211.97 827.393 1211.05C827.357 1210.96 827.318 1210.88 827.282 1210.8C827.176 1210.55 827.073 1210.3 826.968 1210.04C826.933 1209.96 826.897 1209.87 826.863 1209.79C825.064 1205.39 823.601 1200.49 822.541 1195.21C822.535 1195.18 822.528 1195.15 822.522 1195.13C822.243 1193.73 820.629 1193.09 819.509 1193.92C812.646 1199.04 805.68 1202.08 799.393 1202.6C795.756 1202.9 793.656 1199 795.119 1195.54C801.519 1180.44 811.036 1169.84 820.867 1167.39C820.868 1167.39 820.869 1167.39 820.869 1167.39C820.87 1167.39 820.87 1167.39 820.871 1167.39C820.928 1167.38 820.985 1167.36 821.042 1167.35C821.071 1167.33 821.1 1167.33 821.13 1167.32C821.535 1167.23 821.939 1167.15 822.345 1167.08C822.362 1167.08 822.38 1167.08 822.397 1167.07C822.578 1167.05 822.759 1167.01 822.939 1166.99C822.971 1166.99 823.004 1166.98 823.036 1166.98C823.428 1166.93 823.821 1166.9 824.213 1166.88C824.257 1166.87 824.299 1166.87 824.342 1166.87C824.735 1166.84 825.126 1166.84 825.519 1166.84C825.554 1166.84 825.589 1166.85 825.624 1166.85C825.798 1166.85 825.971 1166.87 826.144 1166.88C826.172 1166.88 826.2 1166.88 826.228 1166.88C826.427 1166.89 826.625 1166.91 826.824 1166.92C826.845 1166.93 826.866 1166.93 826.887 1166.93C827.068 1166.95 827.25 1166.97 827.431 1166.99C827.459 1167 827.487 1167 827.515 1167C827.709 1167.04 827.902 1167.07 828.095 1167.1C828.103 1167.1 828.11 1167.1 828.117 1167.1C828.334 1167.14 828.55 1167.19 828.764 1167.23C828.898 1167.26 829.032 1167.29 829.165 1167.32C829.19 1167.33 829.215 1167.33 829.24 1167.35C829.289 1167.36 829.338 1167.37 829.387 1167.38C829.586 1167.43 829.784 1167.48 829.982 1167.55C830.049 1167.57 830.116 1167.59 830.183 1167.61C830.231 1167.62 830.277 1167.63 830.323 1167.66L830.399 1167.68C830.448 1167.7 830.498 1167.71 830.548 1167.73C830.596 1167.74 830.645 1167.76 830.694 1167.78C831.021 1167.89 831.343 1168.02 831.663 1168.16C831.704 1168.17 831.744 1168.19 831.783 1168.2C831.991 1168.3 832.195 1168.38 832.4 1168.48C832.423 1168.49 832.445 1168.5 832.467 1168.51C834.281 1169.39 835.977 1170.58 837.55 1172.05C837.567 1172.08 837.582 1172.09 837.598 1172.11C837.778 1172.28 837.956 1172.45 838.133 1172.63C838.156 1172.65 838.179 1172.67 838.201 1172.7C844.753 1179.35 848.985 1191.12 849.965 1205.26C849.975 1205.39 850.079 1205.5 850.208 1205.51C850.343 1205.51 850.458 1205.4 850.467 1205.26C851.353 1192.5 854.889 1181.65 860.39 1174.78C860.499 1174.64 860.608 1174.5 860.719 1174.37C860.76 1174.32 860.801 1174.26 860.842 1174.22C860.971 1174.07 861.1 1173.91 861.231 1173.77C861.301 1173.69 861.37 1173.61 861.44 1173.53C861.576 1173.38 861.715 1173.23 861.853 1173.09C861.921 1173.02 861.99 1172.94 862.059 1172.87C862.196 1172.73 862.336 1172.59 862.475 1172.45C862.556 1172.36 862.636 1172.29 862.718 1172.21C862.814 1172.12 862.912 1172.03 863.01 1171.94C863.115 1171.84 863.22 1171.74 863.325 1171.65C863.454 1171.53 863.585 1171.42 863.715 1171.31C863.774 1171.26 863.831 1171.21 863.889 1171.16C863.903 1171.15 863.915 1171.14 863.928 1171.13C865.106 1170.15 866.35 1169.32 867.654 1168.67C867.68 1168.65 867.708 1168.64 867.735 1168.63C867.832 1168.57 867.93 1168.53 868.029 1168.49C868.065 1168.47 868.1 1168.45 868.136 1168.43C868.792 1168.13 869.463 1167.86 870.148 1167.64C870.158 1167.63 870.167 1167.63 870.175 1167.63C870.299 1167.59 870.424 1167.56 870.549 1167.52C870.578 1167.51 870.608 1167.51 870.638 1167.5C870.755 1167.46 870.872 1167.43 870.99 1167.4C871.002 1167.39 871.012 1167.39 871.023 1167.39C871.297 1167.31 871.574 1167.25 871.852 1167.2C871.863 1167.19 871.874 1167.19 871.887 1167.19C872.029 1167.15 872.172 1167.13 872.317 1167.1C872.531 1167.07 872.746 1167.03 872.962 1167C872.988 1166.99 873.015 1166.99 873.042 1166.99C873.216 1166.96 873.392 1166.95 873.568 1166.93C873.637 1166.92 873.706 1166.92 873.776 1166.91C873.915 1166.9 874.054 1166.89 874.194 1166.88C874.264 1166.88 874.333 1166.87 874.403 1166.87C874.551 1166.85 874.698 1166.85 874.845 1166.85C874.906 1166.84 874.968 1166.84 875.03 1166.84C875.201 1166.84 875.371 1166.84 875.542 1166.84Z" fill="#EC731C"/>
</svg>
